<mxfile host="65bd71144e">
    <diagram id="HIP3nbAZw_EuaXWnEj3U" name="Page-1">
        <mxGraphModel dx="1234" dy="602" grid="1" gridSize="10" guides="1" tooltips="1" connect="1" arrows="1" fold="1" page="1" pageScale="1" pageWidth="850" pageHeight="1100" math="0" shadow="0">
            <root>
                <mxCell id="0"/>
                <mxCell id="1" parent="0"/>
                <mxCell id="7" value="http://ics2o.mths.ca" style="swimlane;whiteSpace=wrap;html=1;" parent="1" vertex="1">
                    <mxGeometry y="60" width="850" height="480" as="geometry"/>
                </mxCell>
                <mxCell id="8" value="" style="shape=trapezoid;perimeter=trapezoidPerimeter;whiteSpace=wrap;html=1;fixedSize=1;" vertex="1" parent="7">
                    <mxGeometry x="480" y="205" width="120" height="70" as="geometry"/>
                </mxCell>
                <mxCell id="9" value="&lt;span style=&quot;font-size: 15px;&quot;&gt;b&lt;sub style=&quot;font-size: 15px;&quot;&gt;1&lt;/sub&gt;&lt;/span&gt;" style="text;html=1;align=center;verticalAlign=middle;resizable=0;points=[];autosize=1;strokeColor=none;fillColor=none;fontSize=15;" vertex="1" parent="7">
                    <mxGeometry x="520" y="165" width="40" height="40" as="geometry"/>
                </mxCell>
                <mxCell id="10" value="b&lt;sub&gt;2&lt;/sub&gt;" style="text;html=1;align=center;verticalAlign=middle;resizable=0;points=[];autosize=1;strokeColor=none;fillColor=none;fontSize=15;" vertex="1" parent="7">
                    <mxGeometry x="520" y="275" width="40" height="30" as="geometry"/>
                </mxCell>
                <mxCell id="11" value="" style="endArrow=none;dashed=1;html=1;fontSize=15;entryX=0.833;entryY=0.071;entryDx=0;entryDy=0;entryPerimeter=0;" edge="1" parent="7" target="8">
                    <mxGeometry width="50" height="50" relative="1" as="geometry">
                        <mxPoint x="580" y="275" as="sourcePoint"/>
                        <mxPoint x="575" y="200" as="targetPoint"/>
                        <Array as="points"/>
                    </mxGeometry>
                </mxCell>
                <mxCell id="12" value="h" style="text;html=1;align=center;verticalAlign=middle;resizable=0;points=[];autosize=1;strokeColor=none;fillColor=none;fontSize=15;" vertex="1" parent="7">
                    <mxGeometry x="555" y="225" width="30" height="30" as="geometry"/>
                </mxCell>
                <mxCell id="13" value="" style="rounded=1;whiteSpace=wrap;html=1;fontSize=15;" vertex="1" parent="7">
                    <mxGeometry x="62.5" y="175" width="85" height="15" as="geometry"/>
                </mxCell>
                <mxCell id="15" value="&lt;h1&gt;&lt;font style=&quot;font-size: 30px;&quot;&gt;Area of a trapezoid with Js&lt;/font&gt;&lt;/h1&gt;" style="text;html=1;align=center;verticalAlign=middle;resizable=0;points=[];autosize=1;strokeColor=none;fillColor=none;fontSize=15;" vertex="1" parent="7">
                    <mxGeometry x="5" y="25" width="400" height="90" as="geometry"/>
                </mxCell>
                <mxCell id="16" value="Formula: [(b1 + b2) / 2] * h&lt;font style=&quot;font-size: 20px;&quot;&gt;&amp;nbsp;&lt;/font&gt;" style="text;html=1;align=center;verticalAlign=middle;resizable=0;points=[];autosize=1;strokeColor=none;fillColor=none;fontSize=20;" vertex="1" parent="7">
                    <mxGeometry x="22.5" y="115" width="270" height="40" as="geometry"/>
                </mxCell>
                <mxCell id="17" value="b1:" style="text;html=1;align=center;verticalAlign=middle;resizable=0;points=[];autosize=1;strokeColor=none;fillColor=none;fontSize=15;" vertex="1" parent="7">
                    <mxGeometry x="22.5" y="165" width="40" height="30" as="geometry"/>
                </mxCell>
                <mxCell id="18" value="mm" style="text;html=1;align=center;verticalAlign=middle;resizable=0;points=[];autosize=1;strokeColor=none;fillColor=none;fontSize=15;" vertex="1" parent="7">
                    <mxGeometry x="147.5" y="165" width="50" height="30" as="geometry"/>
                </mxCell>
                <mxCell id="20" value="" style="rounded=1;whiteSpace=wrap;html=1;fontSize=15;" vertex="1" parent="7">
                    <mxGeometry x="62.5" y="222.5" width="85" height="15" as="geometry"/>
                </mxCell>
                <mxCell id="19" value="" style="rounded=1;whiteSpace=wrap;html=1;fontSize=15;" vertex="1" parent="7">
                    <mxGeometry x="62.5" y="200" width="85" height="15" as="geometry"/>
                </mxCell>
                <mxCell id="22" value="mm" style="text;html=1;align=center;verticalAlign=middle;resizable=0;points=[];autosize=1;strokeColor=none;fillColor=none;fontSize=15;" vertex="1" parent="7">
                    <mxGeometry x="147.5" y="215" width="50" height="30" as="geometry"/>
                </mxCell>
                <mxCell id="21" value="mm" style="text;html=1;align=center;verticalAlign=middle;resizable=0;points=[];autosize=1;strokeColor=none;fillColor=none;fontSize=15;" vertex="1" parent="7">
                    <mxGeometry x="147.5" y="190" width="50" height="30" as="geometry"/>
                </mxCell>
                <mxCell id="23" value="b2:" style="text;html=1;align=center;verticalAlign=middle;resizable=0;points=[];autosize=1;strokeColor=none;fillColor=none;fontSize=15;" vertex="1" parent="7">
                    <mxGeometry x="22.5" y="190" width="40" height="30" as="geometry"/>
                </mxCell>
                <mxCell id="24" value="h:" style="text;html=1;align=center;verticalAlign=middle;resizable=0;points=[];autosize=1;strokeColor=none;fillColor=none;fontSize=15;" vertex="1" parent="7">
                    <mxGeometry x="22.5" y="215" width="40" height="30" as="geometry"/>
                </mxCell>
                <mxCell id="25" value="Calculate" style="rounded=1;whiteSpace=wrap;html=1;fontSize=15;" vertex="1" parent="7">
                    <mxGeometry x="40" y="275" width="80" height="30" as="geometry"/>
                </mxCell>
                <mxCell id="26" value="The area is: 50 mm&lt;sup&gt;2&lt;/sup&gt;" style="text;html=1;align=center;verticalAlign=middle;resizable=0;points=[];autosize=1;strokeColor=none;fillColor=none;fontSize=15;" vertex="1" parent="7">
                    <mxGeometry x="25" y="330" width="160" height="40" as="geometry"/>
                </mxCell>
            </root>
        </mxGraphModel>
    </diagram>
</mxfile>